<?xml version="1.0" standalone="no"?>
<!-- Creator: fig2dev Version 3.2.6a -->
<!-- CreationDate: 2020-04-12 15:18:18 -->
<!-- Magnification: 1.05 -->
<svg	xmlns="http://www.w3.org/2000/svg"
	xmlns:xlink="http://www.w3.org/1999/xlink"
	width="146pt" height="90pt"
	viewBox="3117 3342 2316 1416">
<g fill="none">
<!-- Line -->
<rect x="3150" y="3375" width="2250" height="1350"
	stroke="#000000" stroke-width="30px"/>
<!-- Line -->
<polyline points=" 4275,3375 4275,4725"
	stroke="#000000" stroke-width="30px"/>
<!-- Line -->
<polyline points=" 3150,4050 5400,4050"
	stroke="#000000" stroke-width="30px"/>
<!-- Line -->
<polygon points=" 3819,4366 3721,4287 3623,4366 3623,3992 3465,3992 3732,3736 3996,3992 3819,3992
" fill="#0000ff"
	stroke="#000000" stroke-width="8px"/>
<!-- Line -->
<polygon points=" 4908,3748 4810,3827 4712,3748 4712,4122 4554,4122 4821,4378 5085,4122 4908,4122
" fill="#0000ff"
	stroke="#000000" stroke-width="8px"/>
<!-- Line -->
<polygon points=" 4594,4272 4515,4370 4594,4468 4220,4468 4220,4626 3964,4359 4220,4095 4220,4272
" fill="#ff0000"
	stroke="#000000" stroke-width="8px"/>
<!-- Line -->
<polygon points=" 3964,3597 4043,3695 3964,3793 4338,3793 4338,3951 4594,3684 4338,3420 4338,3597
" fill="#ff0000"
	stroke="#000000" stroke-width="8px"/>
</g>
</svg>
